#N canvas 815 314 888 609 10;
#X obj 347 590 dac~;
#X obj 164 42 bseq/sq;
#X obj 353 401 osc;
#X obj 240 324 bseq/smidi;
#X obj 405 320 bseq/sosc;
#X obj 382 439 nbx 5 14 -1e+037 1e+037 0 0 empty empty empty 0 -8 0
10 -262144 -1 -1 5.57265e+010 256 0;
#X connect 1 0 3 0;
#X connect 1 0 4 0;
#X connect 1 1 3 1;
#X connect 1 1 4 1;
#X connect 2 0 0 0;
#X connect 2 0 0 1;
#X connect 2 1 5 0;
#X connect 4 0 2 0;
#X connect 4 1 2 1;
