#N canvas 421 160 1046 690 10;
#X obj 301 152 moonlib/mknob 25 127 0 127 0 0 empty empty empty -2
-6 0 8 -262144 -1 -1 0 1;
#X obj 381 152 moonlib/mknob 25 100 0.01 1 1 0 empty empty empty -2
-6 0 8 -262144 -1 -1 0 1;
#X obj 300 182 cnv 15 8 8 empty empty pitch 0 0 0 14 -262144 -66577
0;
#X obj 358 182 cnv 15 8 8 empty empty volume 0 0 0 14 -262144 -66577
0;
#X obj 418 153 nbx 5 14 -1e+037 1e+037 0 0 empty empty empty 0 -8 0
10 -262144 -1 -1 0 256 0;
#X obj 487 155 cnv 15 8 8 empty empty osc\ 1 0 0 0 14 -262144 -66577
0;
#X obj 422 175 cnv 15 8 8 empty empty hz 0 0 0 14 -262144 -66577 0
;
#X obj 301 196 moonlib/mknob 25 127 0 127 0 0 empty empty empty -2
-6 0 8 -262144 -1 -1 0 1;
#X obj 381 196 moonlib/mknob 25 100 0.01 1 1 0 empty empty empty -2
-6 0 8 -262144 -1 -1 0 1;
#X obj 300 226 cnv 15 8 8 empty empty pitch 0 0 0 14 -262144 -66577
0;
#X obj 358 226 cnv 15 8 8 empty empty volume 0 0 0 14 -262144 -66577
0;
#X obj 418 197 nbx 5 14 -1e+037 1e+037 0 0 empty empty empty 0 -8 0
10 -262144 -1 -1 0 256 0;
#X obj 487 199 cnv 15 8 8 empty empty osc\ 2 0 0 0 14 -262144 -66577
0;
#X obj 420 219 cnv 15 8 8 empty empty hz 0 0 0 14 -262144 -66577 0
;
#X obj 390 398 osc;
#X obj 423 399 osc;
#X obj 406 441 +~;
#X obj 520 136 cnv 5 1 1 empty empty megadrone 0 0 0 14 -262144 -66577
0;
#X obj 493 393 osc;
#X obj 526 394 osc;
#X obj 509 436 +~;
#X obj 469 472 +~;
#X obj 302 240 moonlib/mknob 25 127 0 127 0 0 empty empty empty -2
-6 0 8 -262144 -1 -1 0 1;
#X obj 382 240 moonlib/mknob 25 100 0.01 1 1 0 empty empty empty -2
-6 0 8 -262144 -1 -1 0 1;
#X obj 301 270 cnv 15 8 8 empty empty pitch 0 0 0 14 -262144 -66577
0;
#X obj 359 270 cnv 15 8 8 empty empty volume 0 0 0 14 -262144 -66577
0;
#X obj 419 241 nbx 5 14 -1e+037 1e+037 0 0 empty empty empty 0 -8 0
10 -262144 -1 -1 0 256 0;
#X obj 488 243 cnv 15 8 8 empty empty osc\ 3 0 0 0 14 -262144 -66577
0;
#X obj 423 263 cnv 15 8 8 empty empty hz 0 0 0 14 -262144 -66577 0
;
#X obj 302 284 moonlib/mknob 25 127 0 127 0 0 empty empty empty -2
-6 0 8 -262144 -1 -1 0 1;
#X obj 382 284 moonlib/mknob 25 100 0.01 1 1 0 empty empty empty -2
-6 0 8 -262144 -1 -1 0 1;
#X obj 301 314 cnv 15 8 8 empty empty pitch 0 0 0 14 -262144 -66577
0;
#X obj 359 314 cnv 15 8 8 empty empty volume 0 0 0 14 -262144 -66577
0;
#X obj 419 285 nbx 5 14 -1e+037 1e+037 0 0 empty empty empty 0 -8 0
10 -262144 -1 -1 0 256 0;
#X obj 488 287 cnv 15 8 8 empty empty osc\ 4 0 0 0 14 -262144 -66577
0;
#X obj 421 307 cnv 15 8 8 empty empty hz 0 0 0 14 -262144 -66577 0
;
#X obj 641 375 osc;
#X obj 674 376 osc;
#X obj 657 418 +~;
#X obj 744 370 osc;
#X obj 777 371 osc;
#X obj 760 413 +~;
#X obj 720 449 +~;
#X obj 559 152 moonlib/mknob 25 127 0 127 0 0 empty empty empty -2
-6 0 8 -262144 -1 -1 0 1;
#X obj 639 152 moonlib/mknob 25 100 0.01 1 1 0 empty empty empty -2
-6 0 8 -262144 -1 -1 0 1;
#X obj 558 182 cnv 15 8 8 empty empty pitch 0 0 0 14 -262144 -66577
0;
#X obj 616 182 cnv 15 8 8 empty empty volume 0 0 0 14 -262144 -66577
0;
#X obj 676 153 nbx 5 14 -1e+037 1e+037 0 0 empty empty empty 0 -8 0
10 -262144 -1 -1 0 256 0;
#X obj 745 155 cnv 15 8 8 empty empty osc\ 5 0 0 0 14 -262144 -66577
0;
#X obj 680 175 cnv 15 8 8 empty empty hz 0 0 0 14 -262144 -66577 0
;
#X obj 559 196 moonlib/mknob 25 127 0 127 0 0 empty empty empty -2
-6 0 8 -262144 -1 -1 0 1;
#X obj 639 196 moonlib/mknob 25 100 0.01 1 1 0 empty empty empty -2
-6 0 8 -262144 -1 -1 0 1;
#X obj 558 226 cnv 15 8 8 empty empty pitch 0 0 0 14 -262144 -66577
0;
#X obj 616 226 cnv 15 8 8 empty empty volume 0 0 0 14 -262144 -66577
0;
#X obj 676 197 nbx 5 14 -1e+037 1e+037 0 0 empty empty empty 0 -8 0
10 -262144 -1 -1 0 256 0;
#X obj 745 199 cnv 15 8 8 empty empty osc\ 6 0 0 0 14 -262144 -66577
0;
#X obj 678 219 cnv 15 8 8 empty empty hz 0 0 0 14 -262144 -66577 0
;
#X obj 560 240 moonlib/mknob 25 127 0 127 0 0 empty empty empty -2
-6 0 8 -262144 -1 -1 0 1;
#X obj 640 240 moonlib/mknob 25 100 0.01 1 1 0 empty empty empty -2
-6 0 8 -262144 -1 -1 0 1;
#X obj 559 270 cnv 15 8 8 empty empty pitch 0 0 0 14 -262144 -66577
0;
#X obj 617 270 cnv 15 8 8 empty empty volume 0 0 0 14 -262144 -66577
0;
#X obj 677 241 nbx 5 14 -1e+037 1e+037 0 0 empty empty empty 0 -8 0
10 -262144 -1 -1 0 256 0;
#X obj 746 243 cnv 15 8 8 empty empty osc\ 7 0 0 0 14 -262144 -66577
0;
#X obj 681 263 cnv 15 8 8 empty empty hz 0 0 0 14 -262144 -66577 0
;
#X obj 560 284 moonlib/mknob 25 127 0 127 0 0 empty empty empty -2
-6 0 8 -262144 -1 -1 0 1;
#X obj 640 284 moonlib/mknob 25 100 0.01 1 1 0 empty empty empty -2
-6 0 8 -262144 -1 -1 0 1;
#X obj 559 314 cnv 15 8 8 empty empty pitch 0 0 0 14 -262144 -66577
0;
#X obj 617 314 cnv 15 8 8 empty empty volume 0 0 0 14 -262144 -66577
0;
#X obj 677 285 nbx 5 14 -1e+037 1e+037 0 0 empty empty empty 0 -8 0
10 -262144 -1 -1 0 256 0;
#X obj 746 287 cnv 15 8 8 empty empty osc\ 8 0 0 0 14 -262144 -66577
0;
#X obj 679 307 cnv 15 8 8 empty empty hz 0 0 0 14 -262144 -66577 0
;
#X obj 567 518 +~;
#X obj 563 563 /~ 8;
#X obj 563 588 outlet~;
#X obj 301 334 cnv 15 1 1 empty empty out 0 0 0 14 -262144 -17 0;
#X obj 526 332 cnv 15 1 1 empty empty Dlol 0 0 0 14 -262144 -17 0;
#X connect 0 0 14 0;
#X connect 1 0 14 1;
#X connect 7 0 15 0;
#X connect 8 0 15 1;
#X connect 14 0 16 0;
#X connect 14 1 4 0;
#X connect 15 0 16 1;
#X connect 15 1 11 0;
#X connect 16 0 21 0;
#X connect 18 0 20 0;
#X connect 18 1 26 0;
#X connect 19 0 20 1;
#X connect 19 1 33 0;
#X connect 20 0 21 1;
#X connect 21 0 71 0;
#X connect 22 0 18 0;
#X connect 23 0 18 1;
#X connect 29 0 19 0;
#X connect 30 0 19 1;
#X connect 36 0 38 0;
#X connect 36 1 47 0;
#X connect 37 0 38 1;
#X connect 37 1 54 0;
#X connect 38 0 42 0;
#X connect 39 0 41 0;
#X connect 39 1 61 0;
#X connect 40 0 41 1;
#X connect 40 1 68 0;
#X connect 41 0 42 1;
#X connect 42 0 71 1;
#X connect 43 0 36 0;
#X connect 44 0 36 1;
#X connect 50 0 37 0;
#X connect 51 0 37 1;
#X connect 57 0 39 0;
#X connect 58 0 39 1;
#X connect 64 0 40 0;
#X connect 65 0 40 1;
#X connect 71 0 72 0;
#X connect 72 0 73 0;
#X coords 0 -1 1 1 517 221 2 296 129;
