#N canvas 552 356 450 300 10;
#X obj 314 227 osc;
#X obj 126 123 moonlib/mknob 25 100 0 127 0 0 empty empty empty -2
-6 0 8 -262144 -1 -1 0 1;
#X obj 268 144 inlet;
#X obj 274 176 +;
#X obj 118 153 cnv 15 8 8 empty empty pitch 0 0 0 14 -262144 -66577
0;
#X obj 314 252 outlet~;
#X obj 115 170 nbx 5 14 -1e+037 1e+037 0 0 empty empty empty 0 -8 0
10 -262144 -1 -1 0 256 0;
#X obj 133 189 cnv 15 8 8 empty empty hz 0 0 0 14 -262144 -66577 0
;
#X obj 103 105 cnv 15 8 8 empty empty pitch 0 0 0 10 -262144 -66577
0;
#X obj 102 204 cnv 15 8 8 empty empty out 1 8 0 10 -262144 -66577 0
;
#X obj 327 134 loadbang;
#X msg 327 159 1;
#X connect 0 0 5 0;
#X connect 0 1 6 0;
#X connect 1 0 3 1;
#X connect 2 0 3 0;
#X connect 3 0 0 0;
#X connect 10 0 11 0;
#X connect 11 0 0 1;
#X coords 0 -1 1 1 81 121 2 100 100;
