#N canvas 453 303 450 300 10;
#X obj 170 96 inlet~;
#X obj 150 203 outlet~;
#X obj 79 74 tgl 30 0 empty empty empty 17 7 0 10 -262144 -1 -1 0 1
;
#X obj 154 169 *~;
#X obj 82 124 * -1;
#X obj 82 149 + 1;
#X connect 0 0 3 0;
#X connect 2 0 4 0;
#X connect 3 0 1 0;
#X connect 4 0 5 0;
#X connect 5 0 3 1;
#X coords 0 -1 1 1 51 47 2 70 66;
