#N canvas 661 669 450 300 10;
#X obj 112 143 osc~;
#X obj 139 191 *~, f 2;
#X obj 78 112 mtof;
#X obj 34 61 inlet;
#X obj 124 55 inlet;
#X obj 125 241 outlet~;
#X obj 174 241 outlet;
#X connect 0 0 1 0;
#X connect 1 0 5 0;
#X connect 2 0 0 0;
#X connect 2 0 6 0;
#X connect 3 0 2 0;
#X connect 4 0 1 1;
