#N canvas 719 355 870 300 10;
#X obj 50 137 spigot;
#X obj 91 137 spigot;
#X obj 132 137 spigot;
#X obj 173 137 spigot;
#X obj 214 137 spigot;
#X obj 255 137 spigot;
#X obj 51 78 inlet;
#X obj 87 79 inlet;
#X obj 123 81 inlet;
#X obj 159 82 inlet;
#X obj 194 82 inlet;
#X obj 230 83 inlet;
#X obj 50 186 outlet;
#X obj 90 187 outlet;
#X obj 130 186 outlet;
#X obj 171 184 outlet;
#X obj 212 184 outlet;
#X obj 252 185 outlet;
#X obj 269 81 inlet;
#X obj 297 136 spigot;
#X obj 294 184 outlet;
#X obj 311 80 inlet;
#X obj 341 136 spigot;
#X obj 338 184 outlet;
#X obj 355 80 inlet;
#X connect 0 0 12 0;
#X connect 1 0 13 0;
#X connect 2 0 14 0;
#X connect 3 0 15 0;
#X connect 4 0 16 0;
#X connect 5 0 17 0;
#X connect 6 0 0 0;
#X connect 6 0 5 0;
#X connect 6 0 4 0;
#X connect 6 0 3 0;
#X connect 6 0 2 0;
#X connect 6 0 1 0;
#X connect 6 0 19 0;
#X connect 6 0 22 0;
#X connect 7 0 0 1;
#X connect 8 0 1 1;
#X connect 9 0 2 1;
#X connect 10 0 3 1;
#X connect 11 0 4 1;
#X connect 18 0 5 1;
#X connect 19 0 20 0;
#X connect 21 0 19 1;
#X connect 22 0 23 0;
#X connect 24 0 22 1;
