#N canvas 719 355 450 300 10;
#X obj 42 64 inlet;
#X obj 85 63 inlet;
#X obj 85 104 togsel;
#X obj 71 146 holyspigot;
#X obj 12 211 outlet;
#X obj 53 211 outlet;
#X obj 175 211 outlet;
#X obj 216 211 outlet;
#X obj 94 211 outlet;
#X obj 135 211 outlet;
#X obj 259 211 outlet;
#X obj 299 210 outlet;
#X connect 0 0 3 0;
#X connect 1 0 2 0;
#X connect 2 0 3 1;
#X connect 2 1 3 2;
#X connect 2 2 3 3;
#X connect 2 3 3 4;
#X connect 2 4 3 5;
#X connect 2 5 3 6;
#X connect 2 6 3 7;
#X connect 2 7 3 8;
#X connect 3 0 4 0;
#X connect 3 1 5 0;
#X connect 3 2 8 0;
#X connect 3 3 9 0;
#X connect 3 4 6 0;
#X connect 3 5 7 0;
#X connect 3 6 10 0;
#X connect 3 7 11 0;
