#N canvas 597 659 716 385 10;
#X obj 31 21 inlet;
#X obj -16 143 outlet;
#X obj 26 143 outlet;
#X obj 69 143 outlet;
#X obj 111 143 outlet;
#X obj 154 143 outlet;
#X obj 197 143 outlet;
#X msg 0 99 0, f 1;
#X msg 13 99 1, f 1;
#X msg 28 99 0, f 1;
#X msg 41 99 1, f 1;
#X msg 56 99 0, f 1;
#X msg 69 99 1, f 1;
#X msg 85 99 0, f 1;
#X msg 98 99 1, f 1;
#X msg 113 99 0, f 1;
#X msg 126 99 1, f 1;
#X msg 141 99 0, f 1;
#X msg 154 99 1, f 1;
#X msg 171 99 0, f 1;
#X msg 184 99 1, f 1;
#X obj 239 143 outlet;
#X msg 198 99 0, f 1;
#X msg 211 99 1, f 1;
#X obj 281 143 outlet;
#X obj 32 51 sel 0 1 2 3 4 5 6 7;
#X connect 0 0 25 0;
#X connect 7 0 1 0;
#X connect 8 0 1 0;
#X connect 9 0 2 0;
#X connect 10 0 2 0;
#X connect 11 0 3 0;
#X connect 12 0 3 0;
#X connect 13 0 4 0;
#X connect 14 0 4 0;
#X connect 15 0 5 0;
#X connect 16 0 5 0;
#X connect 17 0 6 0;
#X connect 18 0 6 0;
#X connect 19 0 21 0;
#X connect 20 0 21 0;
#X connect 22 0 24 0;
#X connect 23 0 24 0;
#X connect 25 0 8 0;
#X connect 25 0 9 0;
#X connect 25 0 11 0;
#X connect 25 0 13 0;
#X connect 25 0 15 0;
#X connect 25 0 17 0;
#X connect 25 0 19 0;
#X connect 25 0 22 0;
#X connect 25 1 10 0;
#X connect 25 1 7 0;
#X connect 25 1 11 0;
#X connect 25 1 13 0;
#X connect 25 1 15 0;
#X connect 25 1 17 0;
#X connect 25 1 19 0;
#X connect 25 1 22 0;
#X connect 25 2 12 0;
#X connect 25 2 7 0;
#X connect 25 2 9 0;
#X connect 25 2 13 0;
#X connect 25 2 15 0;
#X connect 25 2 17 0;
#X connect 25 2 19 0;
#X connect 25 2 22 0;
#X connect 25 3 14 0;
#X connect 25 3 7 0;
#X connect 25 3 9 0;
#X connect 25 3 11 0;
#X connect 25 3 15 0;
#X connect 25 3 17 0;
#X connect 25 3 19 0;
#X connect 25 3 22 0;
#X connect 25 4 16 0;
#X connect 25 4 7 0;
#X connect 25 4 9 0;
#X connect 25 4 11 0;
#X connect 25 4 13 0;
#X connect 25 4 17 0;
#X connect 25 4 19 0;
#X connect 25 4 22 0;
#X connect 25 5 18 0;
#X connect 25 5 7 0;
#X connect 25 5 9 0;
#X connect 25 5 11 0;
#X connect 25 5 13 0;
#X connect 25 5 15 0;
#X connect 25 5 19 0;
#X connect 25 5 22 0;
#X connect 25 6 20 0;
#X connect 25 6 7 0;
#X connect 25 6 9 0;
#X connect 25 6 11 0;
#X connect 25 6 13 0;
#X connect 25 6 15 0;
#X connect 25 6 17 0;
#X connect 25 6 22 0;
#X connect 25 7 23 0;
#X connect 25 7 19 0;
#X connect 25 7 17 0;
#X connect 25 7 15 0;
#X connect 25 7 13 0;
#X connect 25 7 11 0;
#X connect 25 7 9 0;
#X connect 25 7 7 0;
