#N canvas 188 376 1558 300 10;
#X obj -153 148 tgoh;
#X obj 483 220 outlet;
#X obj 525 220 outlet;
#X obj 567 220 outlet;
#X obj 609 220 outlet;
#X obj 650 220 outlet;
#X obj 692 220 outlet;
#X obj 734 220 outlet;
#X obj 776 220 outlet;
#X obj 32 41 inlet;
#X obj 68 40 inlet;
#X obj 103 42 inlet;
#X obj 139 41 inlet;
#X obj 173 43 inlet;
#X obj 209 42 inlet;
#X obj 244 44 inlet;
#X obj 280 43 inlet;
#X obj 316 43 inlet;
#X obj 352 42 inlet;
#X obj 387 44 inlet;
#X obj 423 43 inlet;
#X obj 457 45 inlet;
#X obj 493 44 inlet;
#X obj 528 46 inlet;
#X obj 564 45 inlet;
#X obj 597 45 inlet;
#X obj 633 44 inlet;
#X obj 668 46 inlet;
#X obj 704 45 inlet;
#X obj 738 47 inlet;
#X obj 774 46 inlet;
#X obj 809 48 inlet;
#X obj 845 47 inlet;
#X obj 881 47 inlet;
#X obj 917 46 inlet;
#X obj 952 48 inlet;
#X obj 988 47 inlet;
#X obj 1022 49 inlet;
#X obj 1058 48 inlet;
#X obj 1093 50 inlet;
#X obj 1129 49 inlet;
#X obj -46 148 tgoh;
#X obj 60 148 tgoh;
#X obj 165 149 tgoh;
#X obj 273 150 tgoh;
#X obj 380 150 tgoh;
#X obj 486 150 tgoh;
#X obj 591 151 tgoh;
#X obj 697 150 tgoh;
#X obj 804 150 tgoh;
#X obj 910 150 tgoh;
#X obj 1015 151 tgoh;
#X obj 1123 152 tgoh;
#X obj 1230 152 tgoh;
#X obj 1336 152 tgoh;
#X obj 1441 153 tgoh;
#X connect 0 0 1 0;
#X connect 0 1 2 0;
#X connect 0 2 3 0;
#X connect 0 3 4 0;
#X connect 0 4 5 0;
#X connect 0 5 6 0;
#X connect 0 6 7 0;
#X connect 0 7 8 0;
#X connect 9 0 0 0;
#X connect 10 0 0 1;
#X connect 11 0 41 0;
#X connect 12 0 41 1;
#X connect 13 0 42 0;
#X connect 14 0 42 1;
#X connect 15 0 43 0;
#X connect 16 0 43 1;
#X connect 17 0 44 0;
#X connect 18 0 44 1;
#X connect 19 0 45 0;
#X connect 20 0 45 1;
#X connect 21 0 46 0;
#X connect 22 0 46 1;
#X connect 23 0 47 0;
#X connect 24 0 47 1;
#X connect 25 0 48 0;
#X connect 26 0 48 1;
#X connect 27 0 49 0;
#X connect 28 0 49 1;
#X connect 29 0 50 0;
#X connect 30 0 50 1;
#X connect 31 0 51 0;
#X connect 32 0 51 1;
#X connect 33 0 52 0;
#X connect 34 0 52 1;
#X connect 35 0 53 0;
#X connect 36 0 53 1;
#X connect 37 0 54 0;
#X connect 38 0 54 1;
#X connect 39 0 55 0;
#X connect 40 0 55 1;
#X connect 41 0 1 0;
#X connect 41 1 2 0;
#X connect 41 2 3 0;
#X connect 41 3 4 0;
#X connect 41 4 5 0;
#X connect 41 5 6 0;
#X connect 41 6 7 0;
#X connect 41 7 8 0;
#X connect 42 0 1 0;
#X connect 42 1 2 0;
#X connect 42 2 3 0;
#X connect 42 3 4 0;
#X connect 42 4 5 0;
#X connect 42 5 6 0;
#X connect 42 6 7 0;
#X connect 42 7 8 0;
#X connect 43 0 1 0;
#X connect 43 1 2 0;
#X connect 43 2 3 0;
#X connect 43 3 4 0;
#X connect 43 4 5 0;
#X connect 43 5 6 0;
#X connect 43 6 7 0;
#X connect 43 7 8 0;
#X connect 44 0 1 0;
#X connect 44 1 2 0;
#X connect 44 2 3 0;
#X connect 44 3 4 0;
#X connect 44 4 5 0;
#X connect 44 5 6 0;
#X connect 44 6 7 0;
#X connect 44 7 8 0;
#X connect 45 0 1 0;
#X connect 45 1 2 0;
#X connect 45 2 3 0;
#X connect 45 3 4 0;
#X connect 45 4 5 0;
#X connect 45 5 6 0;
#X connect 45 6 7 0;
#X connect 45 7 8 0;
#X connect 46 0 1 0;
#X connect 46 1 2 0;
#X connect 46 2 3 0;
#X connect 46 3 4 0;
#X connect 46 4 5 0;
#X connect 46 5 6 0;
#X connect 46 6 7 0;
#X connect 46 7 8 0;
#X connect 47 0 1 0;
#X connect 47 1 2 0;
#X connect 47 2 3 0;
#X connect 47 3 4 0;
#X connect 47 4 5 0;
#X connect 47 5 6 0;
#X connect 47 6 7 0;
#X connect 47 7 8 0;
#X connect 48 0 1 0;
#X connect 48 1 2 0;
#X connect 48 2 3 0;
#X connect 48 3 4 0;
#X connect 48 4 5 0;
#X connect 48 5 6 0;
#X connect 48 6 7 0;
#X connect 48 7 8 0;
#X connect 49 0 1 0;
#X connect 49 1 2 0;
#X connect 49 2 3 0;
#X connect 49 3 4 0;
#X connect 49 4 5 0;
#X connect 49 5 6 0;
#X connect 49 6 7 0;
#X connect 49 7 8 0;
#X connect 50 0 1 0;
#X connect 50 1 2 0;
#X connect 50 2 3 0;
#X connect 50 3 4 0;
#X connect 50 4 5 0;
#X connect 50 5 6 0;
#X connect 50 6 7 0;
#X connect 50 7 8 0;
#X connect 51 0 1 0;
#X connect 51 1 2 0;
#X connect 51 2 3 0;
#X connect 51 3 4 0;
#X connect 51 4 5 0;
#X connect 51 5 6 0;
#X connect 51 6 7 0;
#X connect 51 7 8 0;
#X connect 52 0 1 0;
#X connect 52 1 2 0;
#X connect 52 2 3 0;
#X connect 52 3 4 0;
#X connect 52 4 5 0;
#X connect 52 5 6 0;
#X connect 52 6 7 0;
#X connect 52 7 8 0;
#X connect 53 0 1 0;
#X connect 53 1 2 0;
#X connect 53 2 3 0;
#X connect 53 3 4 0;
#X connect 53 4 5 0;
#X connect 53 5 6 0;
#X connect 53 6 7 0;
#X connect 53 7 8 0;
#X connect 54 0 1 0;
#X connect 54 1 2 0;
#X connect 54 2 3 0;
#X connect 54 3 4 0;
#X connect 54 4 5 0;
#X connect 54 5 6 0;
#X connect 54 6 7 0;
#X connect 54 7 8 0;
#X connect 55 0 1 0;
#X connect 55 1 2 0;
#X connect 55 2 3 0;
#X connect 55 3 4 0;
#X connect 55 4 5 0;
#X connect 55 5 6 0;
#X connect 55 6 7 0;
#X connect 55 7 8 0;
